# xmcd
#
# Track frame offsets:
#	150
#	12660
#	26120
#	41947
#	59185
#	76692
#	90162
#	105372
#	120772
#	138095
#
# Disc length: 2136 seconds
#
# Revision: 1
# Processed by: cddbd v1.5.1PL0 Copyright (c) Steve Scherf et al.
# Submitted via: audiograbber 1.83.01
#
DISCID=7408560a
DTITLE=Mixed - Dynamic Duets
DYEAR=1996
DGENRE=Country
TTITLE0=Johnny Cash and June Carter - Jackson
TTITLE1=George Jones and Tammy Wynette - We're Gonna Hold On
TTITLE2=Waylon Jennings and Willie Nelson - If I Can't Find A Clean Shirt
TTITLE3=Ricky Skaggs and Sharron White - Love Can't Ever Get Better Than This
TTITLE4=Ronnie McDowell and Conway Twitty - It's Only Make Believe
TTITLE5=Tammy Wynette and Emmylou Harris - Beneath A Painted Sky
TTITLE6=Rodney Crowell and Rosanne Cash - It's Such A Small World
TTITLE7=Mary Chapin Carpenter and Joe Diffie - Not Too Much To Ask
TTITLE8=Willie Nelson and Waylon Jennings - Take It To The Limit
TTITLE9=Ty Hendron and Stephanie Bentley - Heart Half Empty
EXTD=
EXTT0=
EXTT1=
EXTT2=
EXTT3=
EXTT4=
EXTT5=
EXTT6=
EXTT7=
EXTT8=
EXTT9=
PLAYORDER=
